<?xml version="1.0" standalone="no"?>
<!DOCTYPE svg PUBLIC "-//W3C//DTD SVG 20010904//EN"
 "http://www.w3.org/TR/2001/REC-SVG-20010904/DTD/svg10.dtd">
<svg version="1.0" xmlns="http://www.w3.org/2000/svg"
 width="700.000000pt" height="700.000000pt" viewBox="0 0 700.000000 700.000000"
 preserveAspectRatio="xMidYMid meet">
<metadata>
Created by potrace 1.11, written by Peter Selinger 2001-2013
</metadata>
<g transform="translate(0.000000,700.000000) scale(0.100000,-0.100000)"
fill="#000000" stroke="none">
<path d="M2259 6236 c-2 -2 -35 -6 -74 -10 -38 -3 -79 -8 -90 -10 -11 -2 -54
-9 -95 -16 -99 -17 -280 -70 -410 -121 -108 -43 -323 -150 -351 -175 -8 -8
-19 -14 -23 -14 -14 0 -197 -131 -287 -207 -284 -236 -535 -572 -669 -893 -17
-41 -37 -88 -45 -105 -46 -103 -113 -369 -140 -548 -25 -173 -25 -540 0 -669
3 -12 8 -43 11 -68 8 -64 51 -261 75 -350 111 -400 304 -776 570 -1111 87
-110 326 -355 419 -430 30 -24 61 -49 68 -56 35 -34 231 -170 334 -232 276
-167 570 -290 883 -368 112 -28 112 -28 175 -38 25 -4 54 -9 65 -12 11 -2 38
-6 60 -9 22 -3 51 -7 65 -9 80 -14 180 -19 390 -20 233 0 356 7 495 30 143 23
305 55 375 74 246 69 239 66 390 120 347 122 702 313 1027 552 250 185 538
465 733 714 31 39 62 80 70 91 8 12 48 68 88 125 138 195 295 482 377 689 37
95 101 283 109 324 3 11 14 64 26 116 12 52 23 104 26 114 4 24 21 149 30 231
10 86 12 368 3 434 -4 31 -10 79 -13 106 -17 136 -55 284 -106 412 -64 159
-142 270 -225 318 -52 31 -98 34 -148 10 -107 -51 -171 -198 -332 -770 -207
-732 -401 -1201 -648 -1570 -54 -81 -142 -202 -157 -215 -3 -3 -37 -43 -77
-90 -176 -209 -438 -434 -691 -594 -105 -66 -137 -78 -302 -113 -83 -17 -389
-24 -499 -10 -233 29 -510 138 -740 291 -173 115 -295 230 -470 441 -79 95
-206 326 -266 483 -40 104 -90 289 -100 372 -4 30 -8 57 -10 60 -7 11 -16 178
-20 385 -3 121 -8 243 -10 270 -24 244 -58 330 -142 354 -70 20 -176 -75 -249
-224 -72 -148 -103 -300 -99 -489 3 -142 10 -203 41 -355 188 -913 907 -1626
1804 -1790 76 -14 158 -23 219 -24 28 0 50 -2 48 -4 -6 -5 -227 -62 -227 -57
0 2 -10 0 -23 -5 -12 -5 -42 -11 -67 -15 -25 -3 -56 -8 -70 -11 -24 -5 -49 -8
-172 -20 -68 -7 -271 -7 -368 0 -642 44 -1293 376 -1712 875 -44 52 -88 105
-99 118 -10 12 -19 25 -19 28 0 3 -11 19 -25 35 -63 76 -198 315 -264 472
-144 339 -202 622 -196 962 2 94 5 181 8 195 3 14 8 43 11 65 30 201 94 401
191 600 58 118 175 309 222 360 10 11 31 37 46 57 44 59 214 227 302 297 151
121 346 236 531 312 54 22 106 42 114 44 8 2 56 16 105 30 50 15 99 29 110 30
11 2 69 12 129 23 144 26 483 23 568 -4 10 -3 30 -7 45 -10 16 -2 39 -7 53
-11 14 -3 30 -7 35 -8 8 -2 89 -25 105 -30 78 -25 251 -104 339 -156 153 -91
253 -170 387 -309 175 -181 315 -415 404 -675 36 -107 40 -113 26 -40 -31 162
-113 369 -216 545 -91 155 -292 391 -408 478 -21 15 -46 35 -57 45 -76 69
-295 192 -453 255 -225 90 -436 130 -693 131 -81 0 -148 -2 -150 -3z"/>
<path d="M3083 4695 c-353 -78 -488 -522 -240 -789 290 -312 815 -116 826 307
8 317 -275 551 -586 482z"/>
<path d="M4081 3643 c-167 -42 -246 -228 -162 -378 100 -178 357 -176 455 5
108 199 -72 430 -293 373z"/>
</g>
</svg>
