<?xml version="1.0" encoding="UTF-8" standalone="no"?>
<!DOCTYPE svg PUBLIC "-//W3C//DTD SVG 1.1//EN" "http://www.w3.org/Graphics/SVG/1.1/DTD/svg11.dtd">
<svg width="100%" height="100%" viewBox="0 0 1500 1500" version="1.1" xmlns="http://www.w3.org/2000/svg" xmlns:xlink="http://www.w3.org/1999/xlink" xml:space="preserve" xmlns:serif="http://www.serif.com/" style="fill-rule:evenodd;clip-rule:evenodd;stroke-linejoin:round;stroke-miterlimit:2;">
    <g id="Swirl" transform="matrix(4.16667,0,0,4.16667,0,0)">
        <g transform="matrix(2.78145,0,0,2.78145,346.423,156.081)">
            <path d="M0,15.326C-1.088,17.931 -3.907,24.378 -10.078,32.086C-16.207,39.75 -26.068,48.608 -39.691,54.075C-46.5,56.807 -53.951,58.686 -62.169,59.2C-70.387,59.647 -79.056,58.344 -87.124,55.121C-95.217,51.918 -102.689,46.795 -108.667,40.24C-114.644,33.707 -119.084,25.722 -121.476,17.269C-122.649,13.043 -123.396,8.75 -123.546,4.332C-123.675,-0.067 -123.163,-4.443 -122.074,-8.583C-119.896,-16.91 -115.39,-24.276 -109.648,-29.763C-98.099,-40.862 -82.108,-44.321 -70.304,-40.715C-64.368,-39.005 -59.564,-35.888 -56.041,-32.538C-52.5,-29.165 -50.17,-25.535 -48.697,-22.439C-47.226,-19.301 -46.542,-16.674 -46.18,-14.904C-45.857,-13.324 -45.754,-12.404 -45.729,-12.192C-45.879,-12.66 -46.371,-16.527 -49.424,-22.055C-51.066,-24.98 -53.589,-28.289 -57.174,-31.235C-60.76,-34.181 -65.478,-36.722 -71.008,-37.875C-81.958,-40.393 -96.156,-36.017 -105.4,-25.662C-110.032,-20.519 -113.385,-13.964 -114.665,-6.92C-116.012,0.148 -115.136,7.471 -112.571,14.43C-110.074,21.326 -105.954,27.58 -100.726,32.49C-95.516,37.443 -89.259,41.073 -82.771,43.101C-76.279,45.193 -69.6,45.686 -63.387,44.894C-60.525,44.51 -57.687,43.89 -54.952,43.101C-56.79,43.079 -58.666,42.908 -60.505,42.568C-66.716,41.392 -72.586,38.681 -77.497,34.988C-82.408,31.316 -86.207,26.683 -88.792,22.158C-91.417,17.611 -92.803,13.191 -93.529,9.732C-94.256,6.275 -94.363,3.775 -94.383,2.773C-94.425,-1.326 -93.337,-4.955 -91.907,-7.262C-90.498,-9.588 -88.854,-10.635 -87.658,-10.229C-86.419,-9.801 -85.823,-8.094 -85.481,-5.766C-85.16,-3.44 -85.077,-0.535 -85.033,2.667C-84.989,4.203 -85.352,10.631 -81.81,18.528C-80.038,22.414 -77.263,26.556 -73.418,30.078C-69.641,33.58 -64.688,36.482 -59.459,38.019C-54.227,39.535 -48.547,39.472 -43.553,38.084C-43.169,37.977 -42.785,37.871 -42.422,37.721C-34.012,32.876 -28.096,26.598 -24.297,21.24C-23.955,20.748 -23.613,20.258 -23.292,19.787L-23.292,19.766C-23.271,19.746 -23.271,19.724 -23.271,19.724C-19.664,14.281 -18.043,9.988 -17.275,8.217C-14.006,0.34 -12,-7.197 -10.332,-13.088C-8.669,-18.939 -7.176,-23.164 -4.591,-23.612C-2.114,-24.061 1.13,-20.325 2.881,-13.11C4.633,-5.979 4.395,4.76 0,15.326" style="fill:rgb(51,51,51);fill-rule:nonzero;"/>
        </g>
        <g transform="matrix(0,-2.46609,-2.46609,0,213.203,172.072)">
            <path d="M-5.464,-5.464C-8.482,-5.464 -10.927,-3.018 -10.927,0C-10.927,3.017 -8.482,5.464 -5.464,5.464C-2.447,5.464 -0,3.017 -0,0C-0,-3.018 -2.447,-5.464 -5.464,-5.464" style="fill:rgb(51,51,51);fill-rule:nonzero;"/>
        </g>
        <g transform="matrix(0,-2.46609,-2.46609,0,164.2,117.82)">
            <path d="M-10,-10C-15.523,-10 -20,-5.523 -20,0C-20,5.523 -15.523,10 -10,10C-4.477,10 0,5.523 0,0C0,-5.523 -4.477,-10 -10,-10" style="fill:rgb(227,69,69);fill-rule:nonzero;"/>
        </g>
    </g>
</svg>
